<?xml version="1.0" standalone="no"?>
<!DOCTYPE svg PUBLIC "-//W3C//DTD SVG 20010904//EN"
 "http://www.w3.org/TR/2001/REC-SVG-20010904/DTD/svg10.dtd">
<svg version="1.0" xmlns="http://www.w3.org/2000/svg"
 width="512.000000pt" height="512.000000pt" viewBox="0 0 512.000000 512.000000"
 preserveAspectRatio="xMidYMid meet">

<g transform="translate(0.000000,512.000000) scale(0.100000,-0.100000)"
fill="#000000" stroke="none">
<path d="M1780 4955 l0 -165 -165 0 -165 0 0 -170 0 -170 -170 0 -170 0 0
-165 0 -165 -165 0 -165 0 0 -835 0 -835 165 0 165 0 2 -167 3 -168 165 0 165
0 3 168 2 167 -170 0 -170 0 0 835 0 835 170 0 170 0 0 165 0 165 165 0 165 0
0 170 0 170 780 0 780 0 0 -170 0 -170 165 0 165 0 0 -165 0 -165 170 0 170 0
0 -835 0 -835 -170 0 -170 0 2 -168 3 -167 165 0 165 0 3 168 2 167 165 0 165
0 0 835 0 835 -165 0 -165 0 0 165 0 165 -170 0 -170 0 0 170 0 170 -165 0
-165 0 0 165 0 165 -780 0 -780 0 0 -165z"/>
<path d="M1450 1780 l0 -330 -167 -2 -168 -3 -3 -167 -2 -168 -165 0 -165 0 0
-165 0 -165 -165 0 -165 0 0 -390 0 -390 2110 0 2110 0 0 390 0 390 -165 0
-165 0 0 165 0 165 -165 0 -165 0 -2 168 -3 167 -167 3 -168 2 0 330 0 330
-165 0 -165 0 0 -165 0 -165 -165 0 -165 0 0 -165 0 -165 330 0 330 0 2 -167
3 -168 168 -3 167 -2 0 -165 0 -165 165 0 165 0 0 -225 0 -225 -1780 0 -1780
0 0 225 0 225 165 0 165 0 0 165 0 165 168 2 167 3 3 168 2 167 330 0 330 0 0
165 0 165 -165 0 -165 0 0 165 0 165 -165 0 -165 0 0 -330z"/>
</g>
</svg>
